<svg version="1.1" xmlns="http://www.w3.org/2000/svg" xmlns:xlink="http://www.w3.org/1999/xlink" width="831" height="604"><defs/><g><g/><g/><g/><g/><g/><g/><g/><g/><g/><g><rect fill="white" stroke="none" x="0" y="0" width="831" height="604"/></g><g><text fill="black" stroke="none" font-family="sans-serif" font-size="16.5pt" font-style="normal" font-weight="normal" text-decoration="normal" x="280.6494144100097" y="22.6179738" text-anchor="start" dominant-baseline="alphabetic" xml:space="preserve">Réception d'un message</text></g><g/><g><path fill="none" stroke="black" paint-order="fill stroke markers" d=" M 75.393246 88.511670804 L 75.393246 604.2014734440002" stroke-miterlimit="10" stroke-width="1.2565541" stroke-dasharray="11.598960923076923,5.0262164"/><path fill="none" stroke="black" paint-order="fill stroke markers" d=" M 466.44828899765616 88.511670804 L 466.44828899765616 604.2014734440002" stroke-miterlimit="10" stroke-width="1.2565541" stroke-dasharray="11.598960923076923,5.0262164"/><path fill="none" stroke="black" paint-order="fill stroke markers" d=" M 707.4926535435545 88.511670804 L 707.4926535435545 604.2014734440002" stroke-miterlimit="10" stroke-width="1.2565541" stroke-dasharray="11.598960923076923,5.0262164"/></g><g><path fill="none" stroke="none"/><g><path fill="white" stroke="black" paint-order="fill stroke markers" d=" M 37.78291161800001 47.799317964000004 L 113.003580382 47.799317964000004 L 113.003580382 88.511670804 L 37.78291161800001 88.511670804 L 37.78291161800001 47.799317964000004 Z" stroke-miterlimit="10" stroke-width="2.4125838720000004" stroke-dasharray=""/></g><g><g/><text fill="black" stroke="none" font-family="sans-serif" font-size="11pt" font-style="normal" font-weight="normal" text-decoration="normal" x="54.143246000000005" y="73.43302160400002" text-anchor="start" dominant-baseline="alphabetic" xml:space="preserve">Client</text></g><path fill="none" stroke="none"/><g><path fill="white" stroke="black" paint-order="fill stroke markers" d=" M 410.32961950213075 47.799317964000004 L 522.5669584931816 47.799317964000004 L 522.5669584931816 88.511670804 L 410.32961950213075 88.511670804 L 410.32961950213075 47.799317964000004 Z" stroke-miterlimit="10" stroke-width="2.4125838720000004" stroke-dasharray=""/></g><g><g/><text fill="black" stroke="none" font-family="sans-serif" font-size="11pt" font-style="normal" font-weight="normal" text-decoration="normal" x="426.6899538841308" y="73.43302160400002" text-anchor="start" dominant-baseline="alphabetic" xml:space="preserve">Dispatcher</text></g><path fill="none" stroke="none"/><g><path fill="white" stroke="black" paint-order="fill stroke markers" d=" M 633.1323191615545 47.799317964000004 L 781.8529879255545 47.799317964000004 L 781.8529879255545 88.511670804 L 633.1323191615545 88.511670804 L 633.1323191615545 47.799317964000004 Z" stroke-miterlimit="10" stroke-width="2.4125838720000004" stroke-dasharray=""/></g><g><g/><text fill="black" stroke="none" font-family="sans-serif" font-size="11pt" font-style="normal" font-weight="normal" text-decoration="normal" x="649.4926535435545" y="73.43302160400002" text-anchor="start" dominant-baseline="alphabetic" xml:space="preserve">Module Logique</text></g></g><g><path fill="white" stroke="black" paint-order="fill stroke markers" d=" M 67.8539214 96.050995404 L 82.9325706 96.050995404 L 82.9325706 589.1228242440002 L 67.8539214 589.1228242440002 L 67.8539214 96.050995404" stroke-miterlimit="10" stroke-width="1.2565541" stroke-dasharray=""/><path fill="white" stroke="black" paint-order="fill stroke markers" d=" M 458.9089643976562 138.27121316400002 L 473.98761359765615 138.27121316400002 L 473.98761359765615 551.4262012440001 L 458.9089643976562 551.4262012440001 L 458.9089643976562 138.27121316400002" stroke-miterlimit="10" stroke-width="1.2565541" stroke-dasharray=""/><path fill="white" stroke="black" paint-order="fill stroke markers" d=" M 466.44828899765616 215.17232408400002 L 481.52693819765614 215.17232408400002 L 481.52693819765614 257.39254184400005 L 466.44828899765616 257.39254184400005 L 466.44828899765616 215.17232408400002" stroke-miterlimit="10" stroke-width="1.2565541" stroke-dasharray=""/><path fill="white" stroke="black" paint-order="fill stroke markers" d=" M 699.9533289435545 257.39254184400005 L 715.0319781435545 257.39254184400005 L 715.0319781435545 509.20598348400017 L 699.9533289435545 509.20598348400017 L 699.9533289435545 257.39254184400005" stroke-miterlimit="10" stroke-width="1.2565541" stroke-dasharray=""/><path fill="white" stroke="black" paint-order="fill stroke markers" d=" M 707.4926535435545 319.2150035640001 L 722.5713027435545 319.2150035640001 L 722.5713027435545 509.20598348400017 L 707.4926535435545 509.20598348400017 L 707.4926535435545 319.2150035640001" stroke-miterlimit="10" stroke-width="1.2565541" stroke-dasharray=""/><path fill="white" stroke="black" paint-order="fill stroke markers" d=" M 466.44828899765616 402.1475741640001 L 481.52693819765614 402.1475741640001 L 481.52693819765614 444.36779192400013 L 466.44828899765616 444.36779192400013 L 466.44828899765616 402.1475741640001" stroke-miterlimit="10" stroke-width="1.2565541" stroke-dasharray=""/><path fill="white" stroke="black" paint-order="fill stroke markers" d=" M 466.44828899765616 509.20598348400017 L 481.52693819765614 509.20598348400017 L 481.52693819765614 551.4262012440001 L 466.44828899765616 551.4262012440001 L 466.44828899765616 509.20598348400017" stroke-miterlimit="10" stroke-width="1.2565541" stroke-dasharray=""/><g><g><rect fill="white" stroke="none" x="165.09230446941402" y="118.668969204" width="211.65692605882813" height="19.602243960000003"/></g><text fill="black" stroke="none" font-family="sans-serif" font-size="11pt" font-style="normal" font-weight="normal" text-decoration="normal" x="167.354101849414" y="132.239753484" text-anchor="start" dominant-baseline="alphabetic" xml:space="preserve">send_message(code,data...)</text></g><g><path fill="none" stroke="black" paint-order="fill stroke markers" d=" M 82.9325706 138.27121316400002 L 446.4942098896562 138.27121316400002" stroke-miterlimit="10" stroke-width="1.2565541" stroke-dasharray=""/><g transform="translate(458.9089643976562,138.27121316400002) translate(-458.9089643976562,-138.27121316400002)"><path fill="black" stroke="none" paint-order="stroke fill markers" d=" M 446.3434233976562 131.98844266400002 L 458.9089643976562 138.27121316400002 L 446.3434233976562 144.55398366400001 Z"/></g></g><g><g><rect fill="white" stroke="none" x="499.3700064176561" y="160.88918696400003" width="129.52359476" height="19.602243960000003"/></g><g><rect fill="white" stroke="none" x="499.3700064176561" y="175.96783616400003" width="126.39026346117187" height="19.602243960000003"/></g><text fill="black" stroke="none" font-family="sans-serif" font-size="11pt" font-style="normal" font-weight="normal" text-decoration="normal" x="501.6318037976561" y="174.45997124400003" text-anchor="start" dominant-baseline="alphabetic" xml:space="preserve">Cherche fonction</text><text fill="black" stroke="none" font-family="sans-serif" font-size="11pt" font-style="normal" font-weight="normal" text-decoration="normal" x="501.6318037976561" y="189.53862044400003" text-anchor="start" dominant-baseline="alphabetic" xml:space="preserve"> associée à code</text></g><g><path fill="none" stroke="black" paint-order="fill stroke markers" d=" M 473.98761359765615 195.57008012400001 L 541.8415349976561 195.57008012400001 L 541.8415349976561 215.17232408400002 L 493.9416927056561 215.17232408400002" stroke-miterlimit="10" stroke-width="1.2565541" stroke-dasharray=""/><g transform="translate(481.52693819765614,215.17232408400002) translate(-481.52693819765614,-215.17232408400002)"><path fill="black" stroke="none" paint-order="stroke fill markers" d=" M 494.09247919765613 208.88955358400003 L 481.52693819765614 215.17232408400002 L 494.09247919765613 221.45509458400002 Z"/></g></g><g><g><rect fill="white" stroke="none" x="499.37000641765616" y="237.79029788400004" width="182.74025430589845" height="19.602243960000003"/></g><text fill="black" stroke="none" font-family="sans-serif" font-size="11pt" font-style="normal" font-weight="normal" text-decoration="normal" x="501.6318037976562" y="251.36108216400004" text-anchor="start" dominant-baseline="alphabetic" xml:space="preserve">f(session, unpack(data))</text></g><g><path fill="none" stroke="black" paint-order="fill stroke markers" d=" M 481.52693819765614 257.39254184400005 L 687.5385744355546 257.39254184400005" stroke-miterlimit="10" stroke-width="1.2565541" stroke-dasharray=""/><g transform="translate(699.9533289435545,257.39254184400005) translate(-699.9533289435545,-257.39254184400005)"><path fill="black" stroke="none" paint-order="stroke fill markers" d=" M 687.3877879435545 251.10977134400005 L 699.9533289435545 257.39254184400005 L 687.3877879435545 263.6753123440001 Z"/></g></g><g><g><rect fill="white" stroke="none" x="740.4143709635546" y="280.01051564400007" width="86.00692453294921" height="19.602243960000003"/></g><text fill="black" stroke="none" font-family="sans-serif" font-size="11pt" font-style="normal" font-weight="normal" text-decoration="normal" x="742.6761683435545" y="293.58129992400006" text-anchor="start" dominant-baseline="alphabetic" xml:space="preserve">Joue action</text></g><g><path fill="none" stroke="black" paint-order="fill stroke markers" d=" M 715.0319781435545 299.6127596040001 L 782.8858995435545 299.6127596040001 L 782.8858995435545 319.2150035640001 L 734.9860572515545 319.2150035640001" stroke-miterlimit="10" stroke-width="1.2565541" stroke-dasharray=""/><g transform="translate(722.5713027435545,319.2150035640001) translate(-722.5713027435545,-319.2150035640001)"><path fill="black" stroke="none" paint-order="stroke fill markers" d=" M 735.1368437435546 312.93223306400006 L 722.5713027435545 319.2150035640001 L 735.1368437435546 325.4977740640001 Z"/></g></g><g><g><rect fill="white" stroke="none" x="513.5396626141405" y="382.5453302040001" width="161.9402665129297" height="19.602243960000003"/></g><text fill="black" stroke="none" font-family="sans-serif" font-size="11pt" font-style="normal" font-weight="normal" text-decoration="normal" x="515.8014599941405" y="396.11611448400015" text-anchor="start" dominant-baseline="alphabetic" xml:space="preserve">LogicException(code)</text></g><g><path fill="none" stroke="black" paint-order="fill stroke markers" d=" M 707.4926535435545 402.1475741640001 L 483.41176934765616 402.1475741640001" stroke-miterlimit="10" stroke-width="1.2565541" stroke-dasharray="6.03145968"/><g transform="translate(481.52693819765614,402.1475741640001) translate(-481.52693819765614,-402.1475741640001)"><path fill="none" stroke="black" paint-order="fill stroke markers" d=" M 494.44562532047524 396.3844380234246 L 482.9395226889326 402.1475741640001 L 494.44562532047524 407.9107103045756" stroke-miterlimit="10" stroke-width="1.2565541"/></g></g><g><g><rect fill="white" stroke="none" x="176.74529806824214" y="424.7655479640001" width="195.89026346117188" height="19.602243960000003"/></g><text fill="black" stroke="none" font-family="sans-serif" font-size="11pt" font-style="normal" font-weight="normal" text-decoration="normal" x="179.00709544824213" y="438.3363322440001" text-anchor="start" dominant-baseline="alphabetic" xml:space="preserve">send_error(code=code,...)</text></g><g><path fill="none" stroke="black" paint-order="fill stroke markers" d=" M 466.44828899765616 444.36779192400013 L 95.347325108 444.36779192400013" stroke-miterlimit="10" stroke-width="1.2565541" stroke-dasharray="6.03145968"/><g transform="translate(82.9325706,444.36779192400013) translate(-82.9325706,-444.36779192400013)"><path fill="black" stroke="none" paint-order="stroke fill markers" d=" M 95.4981116 438.0850214240001 L 82.9325706 444.36779192400013 L 95.4981116 450.65056242400016 Z"/></g></g><g><g><rect fill="white" stroke="none" x="512.7313282635546" y="489.60373952400016" width="163.55693521410157" height="19.602243960000003"/></g><text fill="black" stroke="none" font-family="sans-serif" font-size="11pt" font-style="normal" font-weight="normal" text-decoration="normal" x="514.9931256435545" y="503.17452380400016" text-anchor="start" dominant-baseline="alphabetic" xml:space="preserve">Informations logiques</text></g><g><path fill="none" stroke="black" paint-order="fill stroke markers" d=" M 707.4926535435545 509.20598348400017 L 483.41176934765616 509.20598348400017" stroke-miterlimit="10" stroke-width="1.2565541" stroke-dasharray="6.03145968"/><g transform="translate(481.52693819765614,509.20598348400017) translate(-481.52693819765614,-509.20598348400017)"><path fill="none" stroke="black" paint-order="fill stroke markers" d=" M 494.44562532047524 503.44284734342466 L 482.9395226889326 509.20598348400017 L 494.44562532047524 514.9691196245756" stroke-miterlimit="10" stroke-width="1.2565541"/></g></g><g><g><rect fill="white" stroke="none" x="104.54530111999993" y="531.8239572840001" width="340.29025735765623" height="19.602243960000003"/></g><text fill="black" stroke="none" font-family="sans-serif" font-size="11pt" font-style="normal" font-weight="normal" text-decoration="normal" x="106.80709849999994" y="545.3947415640001" text-anchor="start" dominant-baseline="alphabetic" xml:space="preserve">send_message(code réponse, serialize(infos))</text></g><g><path fill="none" stroke="black" paint-order="fill stroke markers" d=" M 466.44828899765616 551.4262012440001 L 95.347325108 551.4262012440001" stroke-miterlimit="10" stroke-width="1.2565541" stroke-dasharray="6.03145968"/><g transform="translate(82.9325706,551.4262012440001) translate(-82.9325706,-551.4262012440001)"><path fill="black" stroke="none" paint-order="stroke fill markers" d=" M 95.4981116 545.1434307440002 L 82.9325706 551.4262012440001 L 95.4981116 557.7089717440001 Z"/></g></g><g><g/><path fill="none" stroke="black" paint-order="fill stroke markers" d=" M 15.078649200000001 341.8329773640001 L 760.2679257435545 341.8329773640001 L 760.2679257435545 466.98576572400015 L 15.078649200000001 466.98576572400015 L 15.078649200000001 341.8329773640001 Z" stroke-miterlimit="10" stroke-width="2.154092742857143" stroke-dasharray=""/><path fill="white" stroke="black" paint-order="fill stroke markers" d=" M 15.078649200000001 341.8329773640001 L 15.078649200000001 359.9273564040001 L 62.78594683706055 359.9273564040001 L 71.83313635706055 350.8801668840001 L 71.83313635706055 341.8329773640001 L 15.078649200000001 341.8329773640001" stroke-miterlimit="10" stroke-width="2.154092742857143" stroke-dasharray=""/><text fill="black" stroke="none" font-family="sans-serif" font-size="8.8pt" font-style="normal" font-weight="bold" text-decoration="normal" x="30.157298400000002" y="353.89589672400007" text-anchor="start" dominant-baseline="alphabetic" xml:space="preserve">alt</text><text fill="black" stroke="none" font-family="sans-serif" font-size="8.8pt" font-style="normal" font-weight="bold" text-decoration="normal" x="86.91178555706055" y="353.89589672400007" text-anchor="start" dominant-baseline="alphabetic" xml:space="preserve">[Erreur de logique]</text></g></g><g/><g/><g/></g></svg>